<svg width="206" height="52" viewBox="0 0 206 52" fill="none" xmlns="http://www.w3.org/2000/svg">
<path d="M82.9306 11.4204C85.3462 11.4006 87.7288 11.9827 89.863 13.1143C91.9973 14.2459 93.8161 15.8913 95.1552 17.9019L93.2154 19.3209C90.6274 15.6912 86.9654 13.7306 82.9306 13.7306C76.0695 13.7306 71.0626 18.9667 71.0626 26.0153C71.0626 33.0639 76.1737 38.2838 83.0556 38.2838C87.1876 38.2838 90.8589 36.3857 93.4723 32.6936L95.3242 34.1125C93.9657 36.1132 92.1363 37.7492 89.9969 38.8767C87.8576 40.0041 85.4739 40.5883 83.0556 40.5778C74.7964 40.5778 68.5394 34.3278 68.5394 26.0176C68.5394 17.7074 74.713 11.4204 82.9306 11.4204Z" fill="white"/>
<path d="M103.926 40.1633V11.8462H106.428V24.4156H125.118V11.8462H127.623V40.1633H125.111V26.7096H106.421V40.1633H103.926Z" fill="white"/>
<path d="M138.829 11.8462H141.331V40.1633H138.829V11.8462Z" fill="white"/>
<path d="M152.537 11.8462H155.039V28.4712L170.463 11.8462H173.676L163.123 23.1425L174.491 40.1633H171.34L161.35 25.0615L155.049 31.7351V40.1633H152.537V11.8462Z" fill="white"/>
<path d="M181.627 11.8462H184.109V29.8462C184.109 34.8323 187.739 38.2536 193.579 38.2536C199.461 38.2536 203.049 34.8531 203.049 29.8462V11.8462H205.533V29.8462C205.533 36.293 200.984 40.5892 193.579 40.5892C186.257 40.5892 181.627 36.2721 181.627 29.8462V11.8462Z" fill="white"/>
<path d="M25.2223 18.4575C22.2651 15.081 20.6362 10.7446 20.6389 6.25616C20.6389 6.02468 20.6389 5.79319 20.6528 5.56171C20.7685 2.42282 23.2778 0.783936 25.6945 0.783936C28.1111 0.783936 30.6181 2.42745 30.7338 5.56634C30.7454 5.79783 30.7477 6.02931 30.7477 6.26079C30.7505 10.7492 29.1215 15.0856 26.1644 18.4622L25.7014 19.0015L25.2223 18.4575ZM28.8681 6.25616C28.8681 6.05014 28.8681 5.84875 28.8542 5.62653C28.7685 3.28162 26.8264 2.65662 25.6852 2.65662C24.544 2.65662 22.6181 3.28162 22.5324 5.6381C22.5324 5.84644 22.5186 6.05014 22.5186 6.25616C22.514 9.76963 23.6226 13.1942 25.6852 16.0386C27.7527 13.1958 28.8669 9.77128 28.8681 6.25616Z" fill="#F39120"/>
<path d="M20.0277 21.0016C15.5485 20.7034 11.3301 18.7884 8.1573 15.6127C7.99217 15.4491 7.83014 15.2801 7.67118 15.1058C5.5323 12.8048 6.14804 9.87197 7.85637 8.16132C9.5647 6.45067 12.4999 5.84651 14.8008 7.97845C14.9721 8.13586 15.1388 8.29558 15.3054 8.46225C18.4803 11.6354 20.3945 15.8538 20.692 20.3326L20.7383 21.0456L20.0277 21.0016ZM13.9767 9.79558C13.8309 9.64975 13.6874 9.50854 13.5138 9.35808C11.7939 7.76086 9.97906 8.69141 9.17813 9.49234C8.37721 10.2933 7.44433 12.1081 9.05082 13.8396C9.18971 13.9923 9.33323 14.1382 9.47906 14.284C11.9626 16.7703 15.1701 18.4057 18.6411 18.9553C18.0916 15.4865 16.4589 12.2803 13.9767 9.79558Z" fill="#F39120"/>
<path d="M18.1527 26.4715C14.7755 29.4296 10.4386 31.06 5.94903 31.0595C5.71755 31.0595 5.48607 31.0595 5.25458 31.0456C2.1157 30.9299 0.476807 28.4229 0.476807 26.0039C0.476807 23.5849 2.12032 21.0803 5.26153 20.9646C5.49301 20.953 5.72449 20.9507 5.95597 20.9507C10.4449 20.9489 14.7817 22.5776 18.1597 25.534L18.6967 25.997L18.1527 26.4715ZM5.94903 22.8257C5.74532 22.8257 5.54162 22.8257 5.3194 22.8396C2.97449 22.9252 2.34949 24.8674 2.34949 25.9993C2.34949 27.1312 2.97218 29.0757 5.33329 29.1613C5.53931 29.1613 5.74301 29.1752 5.94903 29.1752C9.46358 29.1774 12.8884 28.0655 15.7314 25.9993C12.8877 23.9348 9.46317 22.8238 5.94903 22.8257Z" fill="#F39120"/>
<path d="M20.6944 31.6657C20.3968 36.1446 18.4826 40.3629 15.3078 43.5361C15.1411 43.7028 14.9745 43.8648 14.7985 44.0222C12.4976 46.1611 9.56706 45.5454 7.85409 43.837C6.14113 42.1287 5.53928 39.1935 7.67354 36.8926C7.82863 36.7213 7.99067 36.5546 8.15733 36.3903C11.3287 33.2139 15.5467 31.2986 20.0254 31.0014L20.7384 30.9551L20.6944 31.6657ZM9.48141 37.7167C9.33557 37.8625 9.19437 38.006 9.04622 38.1796C7.449 39.8995 8.37724 41.7143 9.18048 42.5176C9.98372 43.3208 11.7939 44.2491 13.5254 42.6426C13.6782 42.5037 13.824 42.3602 13.9698 42.2143C16.4559 39.7304 18.092 36.5231 18.6434 33.0523C15.1737 33.6012 11.9666 35.2339 9.48141 37.7167Z" fill="#F39120"/>
<path d="M26.1644 33.5405C29.1208 36.9184 30.7495 41.2552 30.7477 45.7442C30.7477 45.9756 30.7477 46.2071 30.7338 46.4386C30.6181 49.5775 28.1111 51.2164 25.6945 51.2164C23.2778 51.2164 20.7685 49.5729 20.6528 46.434C20.6528 46.2025 20.6389 45.971 20.6389 45.7395C20.6382 41.2522 22.2669 36.9172 25.2223 33.5405L25.6852 33.0034L26.1644 33.5405ZM22.5209 45.7442C22.5209 45.9479 22.5209 46.1516 22.5209 46.3738C22.6204 48.7187 24.5602 49.346 25.6852 49.346C26.8102 49.346 28.7593 48.7233 28.8473 46.3645C28.8473 46.1562 28.8588 45.9525 28.8588 45.7465C28.8612 42.2315 27.7502 38.8062 25.6852 35.9618C23.624 38.8067 22.5163 42.231 22.5209 45.7442Z" fill="#F39120"/>
<path d="M31.361 30.9998C35.8391 31.2958 40.057 33.2093 43.2291 36.384C43.3958 36.5484 43.5578 36.7151 43.7175 36.891C45.8541 39.1919 45.2407 42.1248 43.53 43.8354C41.8194 45.5461 38.8865 46.1502 36.5856 44.0183C36.4143 43.8609 36.2476 43.6989 36.0809 43.5345C32.9047 40.3623 30.9902 36.1434 30.6944 31.6641L30.6458 30.9512L31.361 30.9998ZM37.4096 42.2058C37.5555 42.3516 37.7013 42.4928 37.8726 42.6433C39.5948 44.2405 41.4096 43.31 42.2106 42.509C43.0115 41.7081 43.9444 39.8933 42.3379 38.1618C42.1967 38.009 42.0555 37.8632 41.9096 37.7174C39.4253 35.2318 36.2183 33.5959 32.7476 33.0438C33.2947 36.5136 34.9267 39.721 37.4096 42.2058Z" fill="#F39120"/>
<path d="M33.2362 25.5296C36.6128 22.5725 40.9492 20.9435 45.4376 20.9463C45.6691 20.9463 45.9006 20.9463 46.1321 20.9602C49.271 21.0759 50.9099 23.5829 50.9099 25.9995C50.9099 28.4162 49.2663 30.9255 46.1274 31.0412C45.896 31.0528 45.6645 31.0551 45.433 31.0551C40.9446 31.0578 36.6082 29.4289 33.2316 26.4718L32.6923 26.0088L33.2362 25.5296ZM45.4376 29.1755C45.6436 29.1755 45.845 29.1755 46.0673 29.1616C48.4122 29.0759 49.0395 27.1338 49.0395 25.9995C49.0395 24.8653 48.4145 22.9255 46.0557 22.8375C45.8474 22.8375 45.6436 22.8375 45.4376 22.8375C41.9235 22.836 38.4992 23.9469 35.6552 26.0111C38.4998 28.0729 41.9244 29.1806 45.4376 29.1755Z" fill="#F39120"/>
<path d="M30.6946 20.3349C30.9905 15.8557 32.905 11.6368 36.0812 8.46457C36.2479 8.2979 36.4145 8.13586 36.5881 7.97614C38.8891 5.83957 41.8219 6.45531 43.5326 8.16364C45.2432 9.87198 45.8474 12.8072 43.7154 15.1081C43.5604 15.2794 43.3983 15.4437 43.2316 15.6104C40.0594 18.7856 35.8419 20.7006 31.3636 20.9993L30.6483 21.0456L30.6946 20.3349ZM41.8891 14.284C42.0349 14.1382 42.1761 13.9923 42.3266 13.8211C43.9238 12.1011 42.9932 10.2863 42.1923 9.48309C41.3914 8.67985 39.5766 7.75161 37.8474 9.35809C37.6923 9.49698 37.5465 9.64049 37.4006 9.78633C34.9149 12.2693 33.2796 15.476 32.7293 18.9461C36.1984 18.3988 39.4051 16.7668 41.8891 14.284Z" fill="#F39120"/>
</svg>
