<svg width="316" height="98" viewBox="0 0 316 98" fill="none" xmlns="http://www.w3.org/2000/svg">
<g filter="url(#filter0_b_72_975)">
<path d="M0.9146 75.0369V0.536889H14.5146V33.0369H46.2146V0.536889H59.9146V75.0369H46.2146V45.0369H14.5146V75.0369H0.9146ZM89.6544 76.2369C85.8544 76.2369 82.5544 75.6036 79.7544 74.3369C76.9544 73.0702 74.7878 71.2702 73.2544 68.9369C71.7211 66.5369 70.9544 63.7702 70.9544 60.6369C70.9544 57.6369 71.6211 54.9702 72.9544 52.6369C74.2878 50.2369 76.3544 48.2369 79.1544 46.6369C81.9544 45.0369 85.4878 43.9036 89.7544 43.2369L107.554 40.3369V50.3369L92.2544 52.9369C89.6544 53.4036 87.7211 54.2369 86.4544 55.4369C85.1878 56.6369 84.5544 58.2036 84.5544 60.1369C84.5544 62.0036 85.2544 63.5036 86.6544 64.6369C88.1211 65.7036 89.9211 66.2369 92.0544 66.2369C94.7878 66.2369 97.1878 65.6702 99.2544 64.5369C101.388 63.3369 103.021 61.7036 104.154 59.6369C105.354 57.5702 105.954 55.3036 105.954 52.8369V38.8369C105.954 36.5036 105.021 34.5702 103.154 33.0369C101.354 31.4369 98.9544 30.6369 95.9544 30.6369C93.1544 30.6369 90.6544 31.4036 88.4544 32.9369C86.3211 34.4036 84.7544 36.3702 83.7544 38.8369L73.0544 33.6369C74.1211 30.7702 75.7878 28.3036 78.0544 26.2369C80.3878 24.1036 83.1211 22.4369 86.2544 21.2369C89.3878 20.0369 92.7878 19.4369 96.4544 19.4369C100.921 19.4369 104.854 20.2702 108.254 21.9369C111.654 23.5369 114.288 25.8036 116.154 28.7369C118.088 31.6036 119.054 34.9702 119.054 38.8369V75.0369H106.654V65.7369L109.454 65.5369C108.054 67.8702 106.388 69.8369 104.454 71.4369C102.521 72.9702 100.321 74.1702 97.8544 75.0369C95.3878 75.8369 92.6544 76.2369 89.6544 76.2369ZM131.162 95.0369V20.6369H143.462V31.4369L142.262 28.7369C144.129 25.8036 146.662 23.5369 149.862 21.9369C153.062 20.2702 156.762 19.4369 160.962 19.4369C166.096 19.4369 170.729 20.7036 174.862 23.2369C178.996 25.7702 182.262 29.1702 184.662 33.4369C187.129 37.7036 188.362 42.5036 188.362 47.8369C188.362 53.1036 187.162 57.9036 184.762 62.2369C182.362 66.5702 179.096 70.0036 174.962 72.5369C170.829 75.0036 166.129 76.2369 160.862 76.2369C156.929 76.2369 153.296 75.4702 149.962 73.9369C146.696 72.3369 144.096 70.0702 142.162 67.1369L144.262 64.5369V95.0369H131.162ZM159.362 64.2369C162.362 64.2369 165.029 63.5369 167.362 62.1369C169.696 60.7369 171.496 58.8036 172.762 56.3369C174.096 53.8702 174.762 51.0369 174.762 47.8369C174.762 44.6369 174.096 41.8369 172.762 39.4369C171.496 36.9702 169.696 35.0369 167.362 33.6369C165.029 32.1702 162.362 31.4369 159.362 31.4369C156.496 31.4369 153.896 32.1369 151.562 33.5369C149.296 34.9369 147.496 36.9036 146.162 39.4369C144.896 41.9036 144.262 44.7036 144.262 47.8369C144.262 51.0369 144.896 53.8702 146.162 56.3369C147.496 58.8036 149.296 60.7369 151.562 62.1369C153.896 63.5369 156.496 64.2369 159.362 64.2369ZM198.35 95.0369V20.6369H210.65V31.4369L209.45 28.7369C211.316 25.8036 213.85 23.5369 217.05 21.9369C220.25 20.2702 223.95 19.4369 228.15 19.4369C233.283 19.4369 237.916 20.7036 242.05 23.2369C246.183 25.7702 249.45 29.1702 251.85 33.4369C254.316 37.7036 255.55 42.5036 255.55 47.8369C255.55 53.1036 254.35 57.9036 251.95 62.2369C249.55 66.5702 246.283 70.0036 242.15 72.5369C238.016 75.0036 233.316 76.2369 228.05 76.2369C224.116 76.2369 220.483 75.4702 217.15 73.9369C213.883 72.3369 211.283 70.0702 209.35 67.1369L211.45 64.5369V95.0369H198.35ZM226.55 64.2369C229.55 64.2369 232.216 63.5369 234.55 62.1369C236.883 60.7369 238.683 58.8036 239.95 56.3369C241.283 53.8702 241.95 51.0369 241.95 47.8369C241.95 44.6369 241.283 41.8369 239.95 39.4369C238.683 36.9702 236.883 35.0369 234.55 33.6369C232.216 32.1702 229.55 31.4369 226.55 31.4369C223.683 31.4369 221.083 32.1369 218.75 33.5369C216.483 34.9369 214.683 36.9036 213.35 39.4369C212.083 41.9036 211.45 44.7036 211.45 47.8369C211.45 51.0369 212.083 53.8702 213.35 56.3369C214.683 58.8036 216.483 60.7369 218.75 62.1369C221.083 63.5369 223.683 64.2369 226.55 64.2369ZM271.161 97.1369C269.694 97.1369 268.261 97.0036 266.861 96.7369C265.461 96.5369 264.194 96.1702 263.061 95.6369V84.6369C263.927 84.8369 264.961 85.0369 266.161 85.2369C267.427 85.4369 268.594 85.5369 269.661 85.5369C272.661 85.5369 274.827 84.8369 276.161 83.4369C277.561 82.0369 278.794 80.2036 279.861 77.9369L283.461 69.5369L283.261 80.5369L259.561 20.6369H273.661L290.261 64.8369H285.261L301.761 20.6369H315.961L292.261 80.5369C290.861 84.0702 289.161 87.0702 287.161 89.5369C285.161 92.0036 282.827 93.8702 280.161 95.1369C277.561 96.4702 274.561 97.1369 271.161 97.1369Z" fill="url(#paint0_linear_72_975)" fill-opacity="0.28"/>
<path d="M0.9146 75.0369H-0.0854001V76.0369H0.9146V75.0369ZM0.9146 0.53689V-0.463111H-0.0854001V0.53689H0.9146ZM14.5146 0.53689H15.5146V-0.463111H14.5146V0.53689ZM14.5146 33.0369H13.5146V34.0369H14.5146V33.0369ZM46.2146 33.0369V34.0369H47.2146V33.0369H46.2146ZM46.2146 0.53689V-0.463111H45.2146V0.53689H46.2146ZM59.9146 0.53689H60.9146V-0.463111H59.9146V0.53689ZM59.9146 75.0369V76.0369H60.9146V75.0369H59.9146ZM46.2146 75.0369H45.2146V76.0369H46.2146V75.0369ZM46.2146 45.0369H47.2146V44.0369H46.2146V45.0369ZM14.5146 45.0369V44.0369H13.5146V45.0369H14.5146ZM14.5146 75.0369V76.0369H15.5146V75.0369H14.5146ZM1.9146 75.0369V0.53689H-0.0854001V75.0369H1.9146ZM0.9146 1.53689H14.5146V-0.463111H0.9146V1.53689ZM13.5146 0.53689V33.0369H15.5146V0.53689H13.5146ZM14.5146 34.0369H46.2146V32.0369H14.5146V34.0369ZM47.2146 33.0369V0.53689H45.2146V33.0369H47.2146ZM46.2146 1.53689H59.9146V-0.463111H46.2146V1.53689ZM58.9146 0.53689V75.0369H60.9146V0.53689H58.9146ZM59.9146 74.0369H46.2146V76.0369H59.9146V74.0369ZM47.2146 75.0369V45.0369H45.2146V75.0369H47.2146ZM46.2146 44.0369H14.5146V46.0369H46.2146V44.0369ZM13.5146 45.0369V75.0369H15.5146V45.0369H13.5146ZM14.5146 74.0369H0.9146V76.0369H14.5146V74.0369ZM79.7544 74.3369L79.3423 75.248L79.7544 74.3369ZM73.2544 68.9369L72.4117 69.4753L72.4187 69.4861L73.2544 68.9369ZM72.9544 52.6369L73.8227 53.1331L73.8286 53.1225L72.9544 52.6369ZM79.1544 46.6369L79.6506 47.5051L79.1544 46.6369ZM89.7544 43.2369L89.9088 44.2249L89.9152 44.2239L89.7544 43.2369ZM107.554 40.3369H108.554V39.1608L107.394 39.3499L107.554 40.3369ZM107.554 50.3369L107.722 51.3228L108.554 51.1813V50.3369H107.554ZM92.2544 52.9369L92.0869 51.951L92.0778 51.9526L92.2544 52.9369ZM86.4544 55.4369L85.7667 54.7109L86.4544 55.4369ZM86.6544 64.6369L86.0252 65.4141L86.0453 65.4304L86.0663 65.4456L86.6544 64.6369ZM99.2544 64.5369L99.7353 65.4138L99.7447 65.4085L99.2544 64.5369ZM104.154 59.6369L103.29 59.1348L103.284 59.1453L103.278 59.1561L104.154 59.6369ZM103.154 33.0369L102.49 33.7843L102.505 33.7972L102.52 33.8096L103.154 33.0369ZM88.4544 32.9369L89.021 33.761L89.0262 33.7573L88.4544 32.9369ZM83.7544 38.8369L83.3173 39.7363L84.2793 40.2038L84.6812 39.2126L83.7544 38.8369ZM73.0544 33.6369L72.1172 33.2882L71.8005 34.1393L72.6173 34.5363L73.0544 33.6369ZM78.0544 26.2369L78.7282 26.9758L78.7292 26.9749L78.0544 26.2369ZM86.2544 21.2369L85.8968 20.303L86.2544 21.2369ZM108.254 21.9369L107.814 22.8348L107.821 22.8383L107.829 22.8417L108.254 21.9369ZM116.154 28.7369L115.311 29.2738L115.318 29.285L115.325 29.296L116.154 28.7369ZM119.054 75.0369V76.0369H120.054V75.0369H119.054ZM106.654 75.0369H105.654V76.0369H106.654V75.0369ZM106.654 65.7369L106.583 64.7394L105.654 64.8058V65.7369H106.654ZM109.454 65.5369L110.312 66.0514L111.301 64.4024L109.383 64.5394L109.454 65.5369ZM104.454 71.4369L105.076 72.2204L105.084 72.2139L105.092 72.2073L104.454 71.4369ZM97.8544 75.0369L98.1629 75.9881L98.1745 75.9844L98.1859 75.9804L97.8544 75.0369ZM89.6544 75.2369C85.9638 75.2369 82.8103 74.6217 80.1666 73.4258L79.3423 75.248C82.2986 76.5854 85.745 77.2369 89.6544 77.2369V75.2369ZM80.1666 73.4258C77.5212 72.2291 75.5091 70.547 74.0901 68.3877L72.4187 69.4861C74.0665 71.9935 76.3877 73.9114 79.3423 75.248L80.1666 73.4258ZM74.0971 68.3985C72.6767 66.1752 71.9544 63.5993 71.9544 60.6369H69.9544C69.9544 63.9412 70.7655 66.8986 72.4118 69.4753L74.0971 68.3985ZM71.9544 60.6369C71.9544 57.7902 72.5854 55.2983 73.8227 53.133L72.0862 52.1408C70.6568 54.6422 69.9544 57.4836 69.9544 60.6369H71.9544ZM73.8286 53.1225C75.0588 50.9082 76.9811 49.0305 79.6506 47.5051L78.6583 45.7687C75.7277 47.4433 73.5168 49.5656 72.0803 52.1513L73.8286 53.1225ZM79.6506 47.5051C82.3158 45.9822 85.7241 44.8788 89.9088 44.2249L89.6001 42.2489C85.2515 42.9283 81.5931 44.0916 78.6583 45.7687L79.6506 47.5051ZM89.9152 44.2239L107.715 41.3239L107.394 39.3499L89.5936 42.2499L89.9152 44.2239ZM106.554 40.3369V50.3369H108.554V40.3369H106.554ZM107.387 49.351L92.0869 51.951L92.422 53.9228L107.722 51.3228L107.387 49.351ZM92.0778 51.9526C89.3779 52.4372 87.2302 53.3245 85.7667 54.7109L87.1422 56.1628C88.212 55.1493 89.931 54.3699 92.4311 53.9212L92.0778 51.9526ZM85.7667 54.7109C84.2781 56.1212 83.5544 57.9618 83.5544 60.1369H85.5544C85.5544 58.4454 86.0975 57.1526 87.1422 56.1628L85.7667 54.7109ZM83.5544 60.1369C83.5544 62.2926 84.381 64.0831 86.0252 65.4141L87.2836 63.8596C86.1279 62.924 85.5544 61.7145 85.5544 60.1369H83.5544ZM86.0663 65.4456C87.7325 66.6574 89.7482 67.2369 92.0544 67.2369V65.2369C90.094 65.2369 88.5097 64.7497 87.2426 63.8282L86.0663 65.4456ZM92.0544 67.2369C94.9288 67.2369 97.4992 66.6399 99.7353 65.4137L98.7736 63.6601C96.8763 64.7005 94.6467 65.2369 92.0544 65.2369V67.2369ZM99.7447 65.4085C102.034 64.1206 103.805 62.3547 105.031 60.1177L103.278 59.1561C102.238 61.0524 100.741 62.5532 98.7642 63.6653L99.7447 65.4085ZM105.019 60.139C106.311 57.9148 106.954 55.474 106.954 52.8369H104.954C104.954 55.1331 104.398 57.2257 103.29 59.1348L105.019 60.139ZM106.954 52.8369V38.8369H104.954V52.8369H106.954ZM106.954 38.8369C106.954 36.1923 105.878 33.9797 103.789 32.2642L102.52 33.8096C104.165 35.1607 104.954 36.8148 104.954 38.8369H106.954ZM103.819 32.2895C101.794 30.4895 99.1368 29.6369 95.9544 29.6369V31.6369C98.7721 31.6369 100.915 32.3842 102.49 33.7843L103.819 32.2895ZM95.9544 29.6369C92.9595 29.6369 90.2581 30.4609 87.8827 32.1165L89.0262 33.7573C91.0508 32.3462 93.3493 31.6369 95.9544 31.6369V29.6369ZM87.8879 32.1129C85.5885 33.6937 83.8991 35.8184 82.8277 38.4612L84.6812 39.2126C85.6098 36.922 87.0538 35.1134 89.021 33.7609L87.8879 32.1129ZM84.1915 37.9375L73.4915 32.7375L72.6173 34.5363L83.3173 39.7363L84.1915 37.9375ZM73.9917 33.9856C75.0027 31.2686 76.5788 28.9356 78.7282 26.9758L77.3807 25.4979C74.9967 27.6715 73.2396 30.2719 72.1172 33.2882L73.9917 33.9856ZM78.7292 26.9749C80.9645 24.9312 83.5886 23.3287 86.6121 22.1707L85.8968 20.303C82.6537 21.5451 79.8111 23.2759 77.3797 25.4989L78.7292 26.9749ZM86.6121 22.1707C89.6211 21.0184 92.8987 20.4369 96.4544 20.4369V18.4369C92.6769 18.4369 89.1545 19.0554 85.8968 20.303L86.6121 22.1707ZM96.4544 20.4369C100.796 20.4369 104.574 21.2463 107.814 22.8348L108.695 21.039C105.135 19.2941 101.046 18.4369 96.4544 18.4369V20.4369ZM107.829 22.8417C111.072 24.3679 113.554 26.5131 115.311 29.2738L116.998 28.2C115.022 25.094 112.237 22.7059 108.68 21.0321L107.829 22.8417ZM115.325 29.296C117.134 31.9783 118.054 35.145 118.054 38.8369H120.054C120.054 34.7954 119.041 31.2288 116.984 28.1777L115.325 29.296ZM118.054 38.8369V75.0369H120.054V38.8369H118.054ZM119.054 74.0369H106.654V76.0369H119.054V74.0369ZM107.654 75.0369V65.7369H105.654V75.0369H107.654ZM106.726 66.7344L109.526 66.5344L109.383 64.5394L106.583 64.7394L106.726 66.7344ZM108.597 65.0224C107.25 67.2668 105.656 69.1446 103.817 70.6665L105.092 72.2073C107.12 70.5292 108.859 68.4737 110.312 66.0514L108.597 65.0224ZM103.833 70.6534C101.992 72.1137 99.8911 73.2614 97.523 74.0934L98.1859 75.9804C100.751 75.0791 103.05 73.8268 105.076 72.2204L103.833 70.6534ZM97.5459 74.0857C95.1932 74.8487 92.5658 75.2369 89.6544 75.2369V77.2369C92.7431 77.2369 95.5824 76.8251 98.1629 75.9881L97.5459 74.0857ZM131.162 95.0369H130.162V96.0369H131.162V95.0369ZM131.162 20.6369V19.6369H130.162V20.6369H131.162ZM143.462 20.6369H144.462V19.6369H143.462V20.6369ZM143.462 31.4369L142.548 31.843L144.462 31.4369H143.462ZM142.262 28.7369L141.419 28.2L141.131 28.6527L141.348 29.143L142.262 28.7369ZM149.862 21.9369L150.309 22.8313L150.317 22.8276L150.324 22.8238L149.862 21.9369ZM174.862 23.2369L174.34 24.0895L174.862 23.2369ZM184.662 33.4369L183.791 33.9272L183.797 33.9374L184.662 33.4369ZM184.762 62.2369L183.887 61.7524L184.762 62.2369ZM174.962 72.5369L175.475 73.3957L175.485 73.3895L174.962 72.5369ZM149.962 73.9369L149.522 74.835L149.533 74.8403L149.544 74.8454L149.962 73.9369ZM142.162 67.1369L141.384 66.5086L140.925 67.077L141.327 67.6872L142.162 67.1369ZM144.262 64.5369H145.262V61.7073L143.484 63.9086L144.262 64.5369ZM144.262 95.0369V96.0369H145.262V95.0369H144.262ZM167.362 62.1369L166.848 61.2794L167.362 62.1369ZM172.762 56.3369L171.883 55.8614L171.878 55.8707L171.873 55.8801L172.762 56.3369ZM172.762 39.4369L171.873 39.8937L171.88 39.9082L171.888 39.9225L172.762 39.4369ZM167.362 33.6369L166.83 34.4835L166.839 34.489L166.848 34.4944L167.362 33.6369ZM151.562 33.5369L151.048 32.6793L151.037 32.6861L151.562 33.5369ZM146.162 39.4369L145.277 38.9711L145.273 38.9801L146.162 39.4369ZM146.162 56.3369L145.273 56.7937L145.278 56.8031L145.283 56.8124L146.162 56.3369ZM151.562 62.1369L151.037 62.9878L151.048 62.9944L151.562 62.1369ZM132.162 95.0369V20.6369H130.162V95.0369H132.162ZM131.162 21.6369H143.462V19.6369H131.162V21.6369ZM142.462 20.6369V31.4369H144.462V20.6369H142.462ZM144.376 31.0308L143.176 28.3308L141.348 29.143L142.548 31.843L144.376 31.0308ZM143.106 29.2738C144.872 26.4979 147.267 24.3527 150.309 22.8313L149.415 21.0425C146.058 22.7211 143.385 25.1092 141.419 28.2L143.106 29.2738ZM150.324 22.8238C153.36 21.2428 156.897 20.4369 160.962 20.4369V18.4369C156.628 18.4369 152.765 19.2977 149.4 21.05L150.324 22.8238ZM160.962 20.4369C165.922 20.4369 170.373 21.6583 174.34 24.0895L175.385 22.3843C171.085 19.7488 166.269 18.4369 160.962 18.4369V20.4369ZM174.34 24.0895C178.326 26.5329 181.473 29.8075 183.791 33.9272L185.534 32.9466C183.051 28.5329 179.665 25.0076 175.385 22.3843L174.34 24.0895ZM183.797 33.9374C186.168 38.0395 187.362 42.6644 187.362 47.8369H189.362C189.362 42.3427 188.09 37.3676 185.528 32.9364L183.797 33.9374ZM187.362 47.8369C187.362 52.9451 186.2 57.5767 183.887 61.7524L185.637 62.7214C188.124 58.2304 189.362 53.262 189.362 47.8369H187.362ZM183.887 61.7524C181.569 65.9381 178.422 69.2432 174.44 71.6843L175.485 73.3895C179.769 70.7639 183.155 67.2023 185.637 62.7214L183.887 61.7524ZM174.45 71.6782C170.486 74.0438 165.966 75.2369 160.862 75.2369V77.2369C166.292 77.2369 171.172 75.9633 175.475 73.3956L174.45 71.6782ZM160.862 75.2369C157.063 75.2369 153.573 74.4972 150.38 73.0284L149.544 74.8454C153.018 76.4433 156.795 77.2369 160.862 77.2369V75.2369ZM150.402 73.0388C147.29 71.5145 144.829 69.3654 142.997 66.5866L141.327 67.6872C143.362 70.7751 146.101 73.1593 149.522 74.835L150.402 73.0388ZM142.94 67.7652L145.04 65.1652L143.484 63.9086L141.384 66.5086L142.94 67.7652ZM143.262 64.5369V95.0369H145.262V64.5369H143.262ZM144.262 94.0369H131.162V96.0369H144.262V94.0369ZM159.362 65.2369C162.524 65.2369 165.372 64.497 167.877 62.9944L166.848 61.2794C164.685 62.5768 162.2 63.2369 159.362 63.2369V65.2369ZM167.877 62.9944C170.373 61.4965 172.302 59.423 173.652 56.7937L171.873 55.8801C170.69 58.1842 169.018 59.9773 166.848 61.2794L167.877 62.9944ZM173.642 56.8124C175.065 54.1802 175.762 51.1792 175.762 47.8369H173.762C173.762 50.8946 173.126 53.5603 171.883 55.8614L173.642 56.8124ZM175.762 47.8369C175.762 44.4953 175.065 41.5227 173.636 38.9513L171.888 39.9225C173.126 42.151 173.762 44.7785 173.762 47.8369H175.762ZM173.652 38.9801C172.302 36.3508 170.373 34.2773 167.877 32.7794L166.848 34.4944C169.018 35.7965 170.69 37.5896 171.873 39.8937L173.652 38.9801ZM167.894 32.7903C165.388 31.2146 162.533 30.4369 159.362 30.4369V32.4369C162.191 32.4369 164.67 33.1259 166.83 34.4835L167.894 32.7903ZM159.362 30.4369C156.324 30.4369 153.545 31.1811 151.048 32.6794L152.077 34.3944C154.246 33.0927 156.667 32.4369 159.362 32.4369V30.4369ZM151.037 32.6861C148.607 34.187 146.687 36.2919 145.277 38.9711L147.047 39.9026C148.304 37.5153 149.984 35.6868 152.088 34.3877L151.037 32.6861ZM145.273 38.9801C143.924 41.6055 143.262 44.5655 143.262 47.8369H145.262C145.262 44.8416 145.867 42.2016 147.052 39.8937L145.273 38.9801ZM143.262 47.8369C143.262 51.1712 143.923 54.1654 145.273 56.7937L147.052 55.8801C145.868 53.5751 145.262 50.9026 145.262 47.8369H143.262ZM145.283 56.8124C146.695 59.4246 148.613 61.4909 151.037 62.9877L152.088 61.2861C149.978 59.9829 148.297 58.1825 147.042 55.8614L145.283 56.8124ZM151.048 62.9944C153.545 64.4927 156.324 65.2369 159.362 65.2369V63.2369C156.667 63.2369 154.246 62.5811 152.077 61.2794L151.048 62.9944ZM198.35 95.0369H197.35V96.0369H198.35V95.0369ZM198.35 20.6369V19.6369H197.35V20.6369H198.35ZM210.65 20.6369H211.65V19.6369H210.65V20.6369ZM210.65 31.4369L209.736 31.843L211.65 31.4369H210.65ZM209.45 28.7369L208.606 28.2L208.318 28.6527L208.536 29.143L209.45 28.7369ZM217.05 21.9369L217.497 22.8313L217.504 22.8276L217.512 22.8238L217.05 21.9369ZM242.05 23.2369L241.527 24.0895L242.05 23.2369ZM251.85 33.4369L250.978 33.9272L250.984 33.9374L251.85 33.4369ZM251.95 62.2369L251.075 61.7524L251.95 62.2369ZM242.15 72.5369L242.662 73.3957L242.672 73.3895L242.15 72.5369ZM217.15 73.9369L216.71 74.835L216.721 74.8403L216.732 74.8454L217.15 73.9369ZM209.35 67.1369L208.572 66.5086L208.113 67.077L208.515 67.6872L209.35 67.1369ZM211.45 64.5369H212.45V61.7073L210.672 63.9086L211.45 64.5369ZM211.45 95.0369V96.0369H212.45V95.0369H211.45ZM234.55 62.1369L234.035 61.2794L234.55 62.1369ZM239.95 56.3369L239.07 55.8614L239.065 55.8707L239.06 55.8801L239.95 56.3369ZM239.95 39.4369L239.06 39.8937L239.068 39.9082L239.076 39.9225L239.95 39.4369ZM234.55 33.6369L234.018 34.4835L234.026 34.489L234.035 34.4944L234.55 33.6369ZM218.75 33.5369L218.235 32.6793L218.224 32.6861L218.75 33.5369ZM213.35 39.4369L212.465 38.9711L212.46 38.9801L213.35 39.4369ZM213.35 56.3369L212.46 56.7937L212.465 56.8031L212.47 56.8124L213.35 56.3369ZM218.75 62.1369L218.224 62.9878L218.235 62.9944L218.75 62.1369ZM199.35 95.0369V20.6369H197.35V95.0369H199.35ZM198.35 21.6369H210.65V19.6369H198.35V21.6369ZM209.65 20.6369V31.4369H211.65V20.6369H209.65ZM211.564 31.0308L210.364 28.3308L208.536 29.143L209.736 31.843L211.564 31.0308ZM210.293 29.2738C212.06 26.4979 214.454 24.3527 217.497 22.8313L216.603 21.0425C213.245 22.7211 210.573 25.1092 208.606 28.2L210.293 29.2738ZM217.512 22.8238C220.547 21.2428 224.084 20.4369 228.15 20.4369V18.4369C223.815 18.4369 219.952 19.2977 216.588 21.05L217.512 22.8238ZM228.15 20.4369C233.11 20.4369 237.561 21.6583 241.527 24.0895L242.572 22.3843C238.272 19.7488 233.456 18.4369 228.15 18.4369V20.4369ZM241.527 24.0895C245.514 26.5329 248.661 29.8075 250.978 33.9272L252.721 32.9466C250.239 28.5329 246.852 25.0076 242.572 22.3843L241.527 24.0895ZM250.984 33.9374C253.356 38.0395 254.55 42.6644 254.55 47.8369H256.55C256.55 42.3427 255.277 37.3676 252.715 32.9364L250.984 33.9374ZM254.55 47.8369C254.55 52.9451 253.388 57.5767 251.075 61.7524L252.825 62.7214C255.312 58.2304 256.55 53.262 256.55 47.8369H254.55ZM251.075 61.7524C248.757 65.9381 245.61 69.2432 241.627 71.6843L242.672 73.3895C246.956 70.7639 250.343 67.2023 252.825 62.7214L251.075 61.7524ZM241.637 71.6782C237.673 74.0438 233.154 75.2369 228.05 75.2369V77.2369C233.479 77.2369 238.36 75.9633 242.662 73.3956L241.637 71.6782ZM228.05 75.2369C224.25 75.2369 220.761 74.4972 217.568 73.0284L216.732 74.8454C220.206 76.4433 223.983 77.2369 228.05 77.2369V75.2369ZM217.59 73.0388C214.477 71.5145 212.016 69.3654 210.185 66.5866L208.515 67.6872C210.55 70.7751 213.289 73.1593 216.71 74.835L217.59 73.0388ZM210.128 67.7652L212.228 65.1652L210.672 63.9086L208.572 66.5086L210.128 67.7652ZM210.45 64.5369V95.0369H212.45V64.5369H210.45ZM211.45 94.0369H198.35V96.0369H211.45V94.0369ZM226.55 65.2369C229.712 65.2369 232.56 64.497 235.064 62.9944L234.035 61.2794C231.873 62.5768 229.388 63.2369 226.55 63.2369V65.2369ZM235.064 62.9944C237.561 61.4965 239.489 59.423 240.839 56.7937L239.06 55.8801C237.877 58.1842 236.205 59.9773 234.035 61.2794L235.064 62.9944ZM240.829 56.8124C242.252 54.1802 242.95 51.1792 242.95 47.8369H240.95C240.95 50.8946 240.314 53.5603 239.07 55.8614L240.829 56.8124ZM242.95 47.8369C242.95 44.4953 242.253 41.5227 240.824 38.9513L239.076 39.9225C240.314 42.151 240.95 44.7785 240.95 47.8369H242.95ZM240.839 38.9801C239.489 36.3508 237.561 34.2773 235.064 32.7794L234.035 34.4944C236.205 35.7965 237.877 37.5896 239.06 39.8937L240.839 38.9801ZM235.082 32.7903C232.575 31.2146 229.721 30.4369 226.55 30.4369V32.4369C229.379 32.4369 231.858 33.1259 234.018 34.4835L235.082 32.7903ZM226.55 30.4369C223.512 30.4369 220.732 31.1811 218.235 32.6794L219.264 34.3944C221.434 33.0927 223.854 32.4369 226.55 32.4369V30.4369ZM218.224 32.6861C215.794 34.187 213.875 36.2919 212.465 38.9711L214.235 39.9026C215.491 37.5153 217.172 35.6868 219.275 34.3877L218.224 32.6861ZM212.46 38.9801C211.112 41.6055 210.45 44.5655 210.45 47.8369H212.45C212.45 44.8416 213.054 42.2016 214.239 39.8937L212.46 38.9801ZM210.45 47.8369C210.45 51.1712 211.111 54.1654 212.46 56.7937L214.239 55.8801C213.056 53.5751 212.45 50.9026 212.45 47.8369H210.45ZM212.47 56.8124C213.882 59.4246 215.801 61.4909 218.224 62.9877L219.275 61.2861C217.165 59.9829 215.484 58.1825 214.229 55.8614L212.47 56.8124ZM218.235 62.9944C220.732 64.4927 223.512 65.2369 226.55 65.2369V63.2369C223.854 63.2369 221.434 62.5811 219.264 61.2794L218.235 62.9944ZM266.861 96.7369L267.048 95.7546L267.025 95.7502L267.002 95.7469L266.861 96.7369ZM263.061 95.6369H262.061V96.2715L262.635 96.5417L263.061 95.6369ZM263.061 84.6369L263.286 83.6625L262.061 83.3798V84.6369H263.061ZM266.161 85.2369L265.996 86.2233L266.005 86.2247L266.161 85.2369ZM276.161 83.4369L275.454 82.7298L275.445 82.7384L275.437 82.7472L276.161 83.4369ZM279.861 77.9369L280.766 78.3627L280.773 78.3469L280.78 78.3308L279.861 77.9369ZM283.461 69.5369L284.461 69.5551L282.542 69.143L283.461 69.5369ZM283.261 80.5369L282.331 80.9048L284.261 80.5551L283.261 80.5369ZM259.561 20.6369V19.6369H258.09L258.631 21.0048L259.561 20.6369ZM273.661 20.6369L274.597 20.2853L274.353 19.6369H273.661V20.6369ZM290.261 64.8369V65.8369H291.704L291.197 64.4853L290.261 64.8369ZM285.261 64.8369L284.324 64.4872L283.82 65.8369H285.261V64.8369ZM301.761 20.6369V19.6369H301.067L300.824 20.2872L301.761 20.6369ZM315.961 20.6369L316.891 21.0048L317.432 19.6369H315.961V20.6369ZM292.261 80.5369L293.19 80.9053L293.191 80.9048L292.261 80.5369ZM287.161 89.5369L287.937 90.1667L287.161 89.5369ZM280.161 95.1369L279.732 94.2336L279.718 94.2401L279.704 94.2471L280.161 95.1369ZM271.161 96.1369C269.755 96.1369 268.384 96.0091 267.048 95.7546L266.674 97.7192C268.137 97.998 269.633 98.1369 271.161 98.1369V96.1369ZM267.002 95.7469C265.688 95.5592 264.519 95.218 263.486 94.7321L262.635 96.5417C263.869 97.1225 265.233 97.5146 266.719 97.7268L267.002 95.7469ZM264.061 95.6369V84.6369H262.061V95.6369H264.061ZM262.836 85.6113C263.728 85.8172 264.783 86.021 265.996 86.2233L266.325 84.2505C265.139 84.0527 264.126 83.8566 263.286 83.6625L262.836 85.6113ZM266.005 86.2247C267.313 86.4312 268.533 86.5369 269.661 86.5369V84.5369C268.655 84.5369 267.542 84.4426 266.317 84.2491L266.005 86.2247ZM269.661 86.5369C272.786 86.5369 275.28 85.8112 276.885 84.1265L275.437 82.7472C274.374 83.8626 272.535 84.5369 269.661 84.5369V86.5369ZM276.868 84.144C278.368 82.6439 279.662 80.7074 280.766 78.3627L278.956 77.5111C277.926 79.6998 276.754 81.4298 275.454 82.7298L276.868 84.144ZM280.78 78.3308L284.38 69.9308L282.542 69.143L278.942 77.543L280.78 78.3308ZM282.461 69.5187L282.261 80.5187L284.261 80.5551L284.461 69.5551L282.461 69.5187ZM284.191 80.169L260.491 20.269L258.631 21.0048L282.331 80.9048L284.191 80.169ZM259.561 21.6369H273.661V19.6369H259.561V21.6369ZM272.725 20.9885L289.325 65.1885L291.197 64.4853L274.597 20.2853L272.725 20.9885ZM290.261 63.8369H285.261V65.8369H290.261V63.8369ZM286.198 65.1866L302.698 20.9866L300.824 20.2872L284.324 64.4872L286.198 65.1866ZM301.761 21.6369H315.961V19.6369H301.761V21.6369ZM315.031 20.269L291.331 80.169L293.191 80.9048L316.891 21.0048L315.031 20.269ZM291.331 80.1685C289.961 83.6254 288.309 86.533 286.384 88.9071L287.937 90.1667C290.013 87.6074 291.76 84.515 293.19 80.9053L291.331 80.1685ZM286.384 88.9071C284.471 91.2667 282.253 93.0358 279.732 94.2336L280.59 96.0402C283.401 94.7047 285.851 92.7404 287.937 90.1667L286.384 88.9071ZM279.704 94.2471C277.267 95.497 274.428 96.1369 271.161 96.1369V98.1369C274.693 98.1369 277.854 97.4435 280.617 96.0267L279.704 94.2471Z" fill="url(#paint1_linear_72_975)"/>
</g>
<defs>
<filter id="filter0_b_72_975" x="-3.08545" y="-3.46311" width="323.046" height="104.6" filterUnits="userSpaceOnUse" color-interpolation-filters="sRGB">
<feFlood flood-opacity="0" result="BackgroundImageFix"/>
<feGaussianBlur in="BackgroundImageFix" stdDeviation="2"/>
<feComposite in2="SourceAlpha" operator="in" result="effect1_backgroundBlur_72_975"/>
<feBlend mode="normal" in="SourceGraphic" in2="effect1_backgroundBlur_72_975" result="shape"/>
</filter>
<linearGradient id="paint0_linear_72_975" x1="301.994" y1="11.1715" x2="-25.8158" y2="90.3955" gradientUnits="userSpaceOnUse">
<stop stop-color="#0069FF"/>
<stop offset="0.973958" stop-color="#0069FF" stop-opacity="0"/>
</linearGradient>
<linearGradient id="paint1_linear_72_975" x1="156" y1="-42.5" x2="156" y2="144.5" gradientUnits="userSpaceOnUse">
<stop stop-color="#F39120"/>
<stop offset="1" stop-color="#F39120" stop-opacity="0"/>
</linearGradient>
</defs>
</svg>
