<svg width="168" height="52" viewBox="0 0 168 52" fill="none" xmlns="http://www.w3.org/2000/svg">
<path d="M70.5133 16.2027C72.1366 16.1894 73.7377 16.5806 75.1719 17.341C76.6061 18.1015 77.8284 19.2072 78.7282 20.5583L77.4247 21.5118C75.6856 19.0727 73.2247 17.7552 70.5133 17.7552C65.9027 17.7552 62.538 21.2738 62.538 26.0105C62.538 30.7472 65.9727 34.2549 70.5973 34.2549C73.374 34.2549 75.8411 32.9794 77.5973 30.4983L78.8418 31.4518C77.9289 32.7963 76.6995 33.8957 75.2619 34.6533C73.8242 35.4109 72.2224 35.8035 70.5973 35.7965C65.0471 35.7965 60.8424 31.5965 60.8424 26.0121C60.8424 20.4276 64.9911 16.2027 70.5133 16.2027Z" fill="white"/>
<path d="M84.6222 35.518V16.4889H86.3037V24.9356H98.8633V16.4889H100.546V35.518H98.8586V26.4771H86.2991V35.518H84.6222Z" fill="white"/>
<path d="M108.077 16.4889H109.758V35.518H108.077V16.4889Z" fill="white"/>
<path d="M117.289 16.4889H118.97V27.6609L129.335 16.4889H131.494L124.402 24.08L132.042 35.518H129.925L123.211 25.3696L118.977 29.8542V35.518H117.289V16.4889Z" fill="white"/>
<path d="M136.838 16.4889H138.505V28.5849C138.505 31.9356 140.944 34.2347 144.869 34.2347C148.822 34.2347 151.233 31.9496 151.233 28.5849V16.4889H152.902V28.5849C152.902 32.9171 149.845 35.8042 144.869 35.8042C139.949 35.8042 136.838 32.9031 136.838 28.5849V16.4889Z" fill="white"/>
<path d="M31.7333 20.9316C29.7461 18.6625 28.6515 15.7485 28.6533 12.7323C28.6533 12.5767 28.6533 12.4212 28.6627 12.2656C28.7404 10.1563 30.4267 9.05493 32.0507 9.05493C33.6747 9.05493 35.3593 10.1594 35.4371 12.2687C35.4449 12.4243 35.4464 12.5798 35.4464 12.7354C35.4483 15.7516 34.3536 18.6657 32.3664 20.9347L32.0553 21.2972L31.7333 20.9316ZM34.1833 12.7323C34.1833 12.5938 34.1833 12.4585 34.174 12.3092C34.1164 10.7334 32.8113 10.3134 32.0444 10.3134C31.2775 10.3134 29.9833 10.7334 29.9258 12.3169C29.9258 12.4569 29.9164 12.5938 29.9164 12.7323C29.9134 15.0933 30.6584 17.3947 32.0444 19.306C33.4338 17.3957 34.1825 15.0944 34.1833 12.7323Z" fill="#F39120"/>
<path d="M28.2427 22.6411C25.2327 22.4407 22.3979 21.1538 20.2658 19.0198C20.1548 18.9099 20.0459 18.7963 19.9391 18.6791C18.5018 17.1329 18.9156 15.162 20.0636 14.0124C21.2116 12.8629 23.184 12.4569 24.7302 13.8896C24.8453 13.9953 24.9573 14.1027 25.0693 14.2147C27.2028 16.3471 28.4892 19.1818 28.6891 22.1916L28.7202 22.6707L28.2427 22.6411ZM24.1764 15.1107C24.0784 15.0127 23.982 14.9178 23.8653 14.8167C22.7096 13.7433 21.49 14.3687 20.9518 14.9069C20.4136 15.4451 19.7867 16.6647 20.8662 17.8282C20.9596 17.9309 21.056 18.0289 21.154 18.1269C22.8229 19.7977 24.9784 20.8967 27.3109 21.266C26.9416 18.9349 25.8445 16.7804 24.1764 15.1107Z" fill="#F39120"/>
<path d="M26.9827 26.3169C24.7131 28.3048 21.7987 29.4004 18.7818 29.4C18.6262 29.4 18.4707 29.4 18.3151 29.3907C16.2058 29.3129 15.1044 27.6283 15.1044 26.0027C15.1044 24.3772 16.2089 22.694 18.3198 22.6163C18.4753 22.6085 18.6309 22.6069 18.7864 22.6069C21.803 22.6057 24.7173 23.7002 26.9873 25.6869L27.3482 25.998L26.9827 26.3169ZM18.7818 23.8669C18.6449 23.8669 18.508 23.8669 18.3587 23.8763C16.7829 23.9338 16.3629 25.2389 16.3629 25.9996C16.3629 26.7603 16.7813 28.0669 18.368 28.1245C18.5064 28.1245 18.6433 28.1338 18.7818 28.1338C21.1435 28.1353 23.445 27.3881 25.3555 25.9996C23.4445 24.6123 21.1433 23.8657 18.7818 23.8669Z" fill="#F39120"/>
<path d="M28.6906 29.8076C28.4907 32.8174 27.2043 35.6521 25.0709 37.7845C24.9589 37.8965 24.8469 38.0054 24.7286 38.1112C23.1824 39.5485 21.2131 39.1347 20.062 37.9867C18.9109 36.8387 18.5064 34.8663 19.9406 33.3201C20.0449 33.205 20.1537 33.093 20.2657 32.9825C22.3969 30.848 25.2314 29.561 28.2411 29.3612L28.7202 29.3301L28.6906 29.8076ZM21.1555 33.8739C21.0575 33.9719 20.9626 34.0683 20.8631 34.185C19.7897 35.3407 20.4135 36.5603 20.9533 37.1001C21.4931 37.6399 22.7095 38.2636 23.8731 37.1841C23.9757 37.0907 24.0737 36.9943 24.1717 36.8963C25.8424 35.2271 26.9418 33.0718 27.3124 30.7394C24.9808 31.1083 22.8256 32.2055 21.1555 33.8739Z" fill="#F39120"/>
<path d="M32.3664 31.0676C34.3531 33.3375 35.4477 36.2519 35.4464 39.2684C35.4464 39.424 35.4464 39.5796 35.4371 39.7351C35.3593 41.8444 33.6747 42.9458 32.0507 42.9458C30.4267 42.9458 28.7404 41.8413 28.6627 39.732C28.6627 39.5764 28.6533 39.4209 28.6533 39.2653C28.6528 36.2498 29.7473 33.3367 31.7333 31.0676L32.0444 30.7067L32.3664 31.0676ZM29.918 39.2684C29.918 39.4053 29.918 39.5422 29.918 39.6916C29.9849 41.2673 31.2884 41.6889 32.0444 41.6889C32.8004 41.6889 34.1102 41.2704 34.1693 39.6853C34.1693 39.5453 34.1771 39.4084 34.1771 39.27C34.1787 36.908 33.4321 34.6061 32.0444 32.6947C30.6593 34.6064 29.9149 36.9076 29.918 39.2684Z" fill="#F39120"/>
<path d="M35.8587 29.3596C38.8679 29.5585 41.7023 30.8444 43.834 32.9778C43.946 33.0882 44.0549 33.2002 44.1622 33.3185C45.598 34.8647 45.1858 36.8356 44.0362 37.9851C42.8867 39.1347 40.9158 39.5407 39.3695 38.108C39.2544 38.0022 39.1424 37.8933 39.0304 37.7829C36.896 35.6512 35.6095 32.8161 35.4107 29.806L35.378 29.3269L35.8587 29.3596ZM39.9233 36.89C40.0213 36.988 40.1193 37.0829 40.2344 37.184C41.3918 38.2573 42.6113 37.632 43.1495 37.0938C43.6878 36.5556 44.3147 35.336 43.2351 34.1725C43.1402 34.0698 43.0453 33.9718 42.9473 33.8738C41.2778 32.2035 39.1227 31.1041 36.7904 30.7331C37.1581 33.0649 38.2548 35.2202 39.9233 36.89Z" fill="#F39120"/>
<path d="M37.1187 25.6838C39.3877 23.6966 42.3018 22.6019 45.318 22.6038C45.4736 22.6038 45.6291 22.6038 45.7847 22.6131C47.894 22.6909 48.9953 24.3755 48.9953 25.9995C48.9953 27.6235 47.8909 29.3098 45.7816 29.3875C45.626 29.3953 45.4704 29.3969 45.3149 29.3969C42.2987 29.3987 39.3846 28.3041 37.1156 26.3169L36.7531 26.0058L37.1187 25.6838ZM45.318 28.1338C45.4564 28.1338 45.5918 28.1338 45.7411 28.1244C47.3169 28.0669 47.7384 26.7618 47.7384 25.9995C47.7384 25.2373 47.3184 23.9338 45.7333 23.8747C45.5933 23.8747 45.4564 23.8747 45.318 23.8747C42.9565 23.8736 40.6553 24.6202 38.7442 26.0073C40.6558 27.3928 42.9571 28.1372 45.318 28.1338Z" fill="#F39120"/>
<path d="M35.4106 22.1931C35.6095 19.1831 36.896 16.348 39.0304 14.2162C39.1424 14.1042 39.2544 13.9953 39.3711 13.888C40.9173 12.4522 42.8882 12.866 44.0377 14.014C45.1873 15.162 45.5933 17.1345 44.1606 18.6807C44.0564 18.7958 43.9475 18.9062 43.8355 19.0182C41.7038 21.1519 38.8696 22.4388 35.8602 22.6396L35.3795 22.6707L35.4106 22.1931ZM42.9333 18.1269C43.0313 18.0289 43.1262 17.9309 43.2273 17.8158C44.3006 16.66 43.6753 15.4405 43.1371 14.9007C42.5988 14.3609 41.3793 13.7371 40.2173 14.8167C40.1131 14.91 40.0151 15.0065 39.9171 15.1045C38.2467 16.773 37.1477 18.9279 36.778 21.2598C39.1092 20.8921 41.2641 19.7953 42.9333 18.1269Z" fill="#F39120"/>
</svg>
